<?xml version="1.0" encoding="UTF-8"?>
<svg id="Layer_2" data-name="Layer 2" xmlns="http://www.w3.org/2000/svg" viewBox="0 0 554.02 554.02">
  <defs>
    <style>
      .cls-1, .cls-2 {
        fill: #fff;
      }

      .cls-2 {
        stroke: #eaa700;
        stroke-miterlimit: 10;
        stroke-width: 6px;
      }
    </style>
  </defs>
  <g id="drawing">
    <g>
      <path class="cls-2" d="M277.01,3C125.68,3,3,125.68,3,277.01s122.68,274.01,274.01,274.01,274.01-122.68,274.01-274.01S428.34,3,277.01,3ZM277.01,515.99c-131.99,0-238.99-107-238.99-238.99S145.02,38.02,277.01,38.02s238.99,107,238.99,238.99-107,238.99-238.99,238.99Z"/>
      <g>
        <polygon class="cls-1" points="268.88 515.99 267.05 226.53 194.05 165.53 192.05 118.53 211.98 118.53 211.98 155.79 268.88 202.44 268.88 111.95 285.46 111.95 285.46 203.57 342.05 156.53 342.05 119.82 362.05 119.53 362.05 166.75 287.05 227.53 286.3 515.82 268.88 515.99"/>
        <g>
          <polyline class="cls-1" points="344.12 506.44 344.12 301.14 401.55 244.03 453.6 244.03 453.6 262.38 409.55 262.03 362.13 307.53 362.55 345.03 398.86 312.05 437.55 311.03 437.55 330.03 404.55 329.03 363.55 368.03 363.55 500.03"/>
          <polyline class="cls-1" points="305.74 514.28 305.55 261.03 358.55 208.03 398.86 208.03 398.86 172.55 415.61 172.55 415.61 227.83 367.55 226.03 323.55 271.03 323.55 511.4"/>
          <path class="cls-1" d="M474.55,229.03c-13.25,0-24,10.75-24,24s10.75,24,24,24,24-10.75,24-24-10.75-24-24-24ZM474.55,262.03c-4.97,0-9-4.03-9-9s4.03-9,9-9,9,4.03,9,9-4.03,9-9,9Z"/>
          <path class="cls-1" d="M457.55,298.03c-13.25,0-24,10.75-24,24s10.75,24,24,24,24-10.75,24-24-10.75-24-24-24ZM457.55,331.03c-4.97,0-9-4.03-9-9s4.03-9,9-9,9,4.03,9,9-4.03,9-9,9Z"/>
          <path class="cls-1" d="M407.55,127.03c-13.25,0-24,10.75-24,24s10.75,24,24,24,24-10.75,24-24-10.75-24-24-24ZM407.55,160.03c-4.97,0-9-4.03-9-9s4.03-9,9-9,9,4.03,9,9-4.03,9-9,9Z"/>
        </g>
        <g>
          <polyline class="cls-1" points="211.98 507.44 211.98 302.14 154.55 245.03 102.5 245.03 102.5 263.38 146.55 263.03 193.96 308.53 193.55 346.03 157.24 313.05 118.55 312.03 118.55 331.03 151.55 330.03 192.55 369.03 192.55 501.03"/>
          <polyline class="cls-1" points="250.36 515.28 250.55 262.03 197.55 209.03 157.24 209.03 157.24 173.55 140.49 173.55 140.49 228.83 188.55 227.03 232.55 272.03 232.55 512.4"/>
          <path class="cls-1" d="M81.55,230.03c13.25,0,24,10.75,24,24,0,13.25-10.75,24-24,24s-24-10.75-24-24c0-13.25,10.75-24,24-24ZM81.55,263.03c4.97,0,9-4.03,9-9s-4.03-9-9-9-9,4.03-9,9,4.03,9,9,9Z"/>
          <path class="cls-1" d="M98.55,299.03c13.25,0,24,10.75,24,24,0,13.25-10.75,24-24,24-13.25,0-24-10.75-24-24,0-13.25,10.75-24,24-24ZM98.55,332.03c4.97,0,9-4.03,9-9,0-4.97-4.03-9-9-9s-9,4.03-9,9c0,4.97,4.03,9,9,9Z"/>
          <path class="cls-1" d="M148.55,128.03c13.25,0,24,10.75,24,24s-10.75,24-24,24-24-10.75-24-24,10.75-24,24-24ZM148.55,161.03c4.97,0,9-4.03,9-9s-4.03-9-9-9-9,4.03-9,9,4.03,9,9,9Z"/>
        </g>
        <path class="cls-1" d="M202.42,73.91c-13.25,0-24,10.75-24,24s10.75,24,24,24,24-10.75,24-24-10.75-24-24-24ZM202.42,106.91c-4.97,0-9-4.03-9-9s4.03-9,9-9,9,4.03,9,9-4.03,9-9,9Z"/>
        <path class="cls-1" d="M277.42,64.91c-13.25,0-24,10.75-24,24s10.75,24,24,24,24-10.75,24-24-10.75-24-24-24ZM277.42,97.91c-4.97,0-9-4.03-9-9s4.03-9,9-9,9,4.03,9,9-4.03,9-9,9Z"/>
        <path class="cls-1" d="M351.42,73.91c-13.25,0-24,10.75-24,24s10.75,24,24,24,24-10.75,24-24-10.75-24-24-24ZM351.42,106.91c-4.97,0-9-4.03-9-9s4.03-9,9-9,9,4.03,9,9-4.03,9-9,9Z"/>
      </g>
    </g>
  </g>
</svg>